<svg viewBox="0 0 22 22" xmlns="http://www.w3.org/2000/svg" xmlns:xlink="http://www.w3.org/1999/xlink" width="22.000000" height="22.000000" fill="none" customFrame="#000000">
	<rect id="layers" width="22.000000" height="22.000000" x="0.000000" y="0.000000" />
	<path id="矢量 31" d="M10.9999 1.83301C10.7374 1.83301 10.4779 1.88939 10.2391 1.99834L2.38326 5.57334C2.2206 5.64506 2.0823 5.76253 1.98521 5.91145C1.88812 6.06037 1.83643 6.23431 1.83643 6.41209C1.83643 6.58986 1.88812 6.7638 1.98521 6.91272C2.0823 7.06164 2.2206 7.17911 2.38326 7.25084L10.2483 10.835C10.4871 10.9439 10.7466 11.0003 11.0091 11.0003C11.2716 11.0003 11.5311 10.9439 11.7699 10.835L19.6349 7.26C19.7976 7.18828 19.9359 7.0708 20.033 6.92188C20.1301 6.77296 20.1818 6.59903 20.1818 6.42125C20.1818 6.24348 20.1301 6.06954 20.033 5.92062C19.9359 5.7717 19.7976 5.65423 19.6349 5.5825L11.7608 1.99834C11.5219 1.88939 11.2624 1.83301 10.9999 1.83301Z" fill-rule="nonzero" stroke="rgb(16,185,129)" stroke-linecap="round" stroke-linejoin="round" stroke-width="1.833333" />
	<path id="矢量 32" d="M1.83325 11C1.83282 11.1753 1.88268 11.3471 1.97691 11.495C2.07115 11.6428 2.20581 11.7605 2.36492 11.8342L10.2483 15.4183C10.4859 15.5259 10.7437 15.5816 11.0045 15.5816C11.2653 15.5816 11.5232 15.5259 11.7608 15.4183L19.6258 11.8433C19.788 11.7704 19.9255 11.6518 20.0216 11.5021C20.1176 11.3523 20.168 11.1779 20.1666 11" fill-rule="nonzero" stroke="rgb(16,185,129)" stroke-linecap="round" stroke-linejoin="round" stroke-width="1.833333" />
	<path id="矢量 33" d="M1.83325 15.5833C1.83282 15.7587 1.88268 15.9304 1.97691 16.0783C2.07115 16.2261 2.20581 16.3439 2.36492 16.4175L10.2483 20.0017C10.4859 20.1093 10.7437 20.1649 11.0045 20.1649C11.2653 20.1649 11.5232 20.1093 11.7608 20.0017L19.6258 16.4267C19.788 16.3537 19.9255 16.2352 20.0216 16.0854C20.1176 15.9357 20.168 15.7612 20.1666 15.5833" fill-rule="nonzero" stroke="rgb(16,185,129)" stroke-linecap="round" stroke-linejoin="round" stroke-width="1.833333" />
</svg>
